<svg width="259" height="32" viewBox="0 0 259 32" fill="none" xmlns="http://www.w3.org/2000/svg">
<path d="M167.43 19.1101C166.99 19.1101 166.613 19.0334 166.3 18.8801C165.987 18.7201 165.733 18.5134 165.54 18.2601C165.347 18.0001 165.203 17.7201 165.11 17.4201C165.017 17.1134 164.97 16.8134 164.97 16.5201C164.97 16.1534 165.013 15.8134 165.1 15.5001C165.193 15.1868 165.337 14.9134 165.53 14.6801C165.723 14.4401 165.977 14.2534 166.29 14.1201C166.603 13.9868 166.983 13.9201 167.43 13.9201C167.943 13.9201 168.397 14.0301 168.79 14.2501C169.19 14.4634 169.503 14.7634 169.73 15.1501C169.963 15.5368 170.08 15.9934 170.08 16.5201C170.08 17.0334 169.963 17.4868 169.73 17.8801C169.497 18.2668 169.18 18.5701 168.78 18.7901C168.38 19.0034 167.93 19.1101 167.43 19.1101ZM167.01 18.1101C167.363 18.1101 167.67 18.0434 167.93 17.9101C168.19 17.7768 168.39 17.5934 168.53 17.3601C168.677 17.1201 168.75 16.8401 168.75 16.5201C168.75 16.0401 168.597 15.6534 168.29 15.3601C167.99 15.0668 167.563 14.9201 167.01 14.9201C166.623 14.9201 166.287 14.9834 166 15.1101C165.713 15.2368 165.49 15.4201 165.33 15.6601C165.177 15.8934 165.1 16.1801 165.1 16.5201C165.1 16.8334 165.177 17.1101 165.33 17.3501C165.483 17.5901 165.703 17.7768 165.99 17.9101C166.277 18.0434 166.617 18.1101 167.01 18.1101ZM165.1 12.0301V17.7201C165.1 17.9334 165.09 18.1634 165.07 18.4101C165.05 18.6501 165.03 18.8468 165.01 19.0001H163.8V12.0301H165.1Z" fill="white"/>
<path d="M170.396 14.0301H171.776L173.926 18.8001L172.806 19.0001L170.396 14.0301ZM176.476 14.0301L173.036 21.0001H171.686L173.156 18.2601L175.086 14.0301H176.476Z" fill="white"/>
<path d="M183.515 12.5301C184.242 12.5301 184.848 12.6168 185.335 12.7901C185.822 12.9634 186.208 13.2001 186.495 13.5001C186.788 13.7934 186.995 14.1334 187.115 14.5201C187.242 14.9068 187.305 15.3134 187.305 15.7401C187.305 16.1668 187.235 16.5768 187.095 16.9701C186.962 17.3634 186.745 17.7134 186.445 18.0201C186.152 18.3201 185.762 18.5601 185.275 18.7401C184.795 18.9134 184.208 19.0001 183.515 19.0001H179.815V12.5301H183.515ZM181.145 17.8601H183.485C183.965 17.8601 184.362 17.8034 184.675 17.6901C184.995 17.5701 185.248 17.4101 185.435 17.2101C185.622 17.0101 185.755 16.7834 185.835 16.5301C185.915 16.2768 185.955 16.0134 185.955 15.7401C185.955 15.4668 185.915 15.2068 185.835 14.9601C185.755 14.7134 185.622 14.4934 185.435 14.3001C185.248 14.1068 184.995 13.9534 184.675 13.8401C184.362 13.7268 183.965 13.6701 183.485 13.6701H181.145V17.8601Z" fill="white"/>
<path d="M190.854 19.1101C190.361 19.1101 189.911 19.0034 189.504 18.7901C189.104 18.5701 188.784 18.2668 188.544 17.8801C188.311 17.4868 188.194 17.0334 188.194 16.5201C188.194 15.9934 188.314 15.5368 188.554 15.1501C188.794 14.7634 189.117 14.4634 189.524 14.2501C189.937 14.0301 190.404 13.9201 190.924 13.9201C191.497 13.9201 191.957 14.0368 192.304 14.2701C192.657 14.4968 192.914 14.8068 193.074 15.2001C193.234 15.5934 193.314 16.0334 193.314 16.5201C193.314 16.8134 193.267 17.1134 193.174 17.4201C193.081 17.7201 192.937 18.0001 192.744 18.2601C192.551 18.5134 192.297 18.7201 191.984 18.8801C191.671 19.0334 191.294 19.1101 190.854 19.1101ZM191.274 18.1101C191.667 18.1101 192.007 18.0434 192.294 17.9101C192.581 17.7768 192.801 17.5901 192.954 17.3501C193.107 17.1101 193.184 16.8334 193.184 16.5201C193.184 16.1801 193.104 15.8934 192.944 15.6601C192.791 15.4201 192.571 15.2401 192.284 15.1201C192.004 14.9934 191.667 14.9301 191.274 14.9301C190.721 14.9301 190.291 15.0768 189.984 15.3701C189.677 15.6568 189.524 16.0401 189.524 16.5201C189.524 16.8401 189.597 17.1201 189.744 17.3601C189.891 17.5934 190.094 17.7768 190.354 17.9101C190.621 18.0434 190.927 18.1101 191.274 18.1101ZM193.184 14.0301H194.484V19.0001H193.274C193.274 19.0001 193.264 18.9368 193.244 18.8101C193.231 18.6768 193.217 18.5101 193.204 18.3101C193.191 18.1101 193.184 17.9134 193.184 17.7201V14.0301Z" fill="white"/>
<path d="M202.141 18.1001L201.731 18.0901L203.351 14.0301H204.781L202.591 19.0001H201.371L199.771 14.9901H200.211L198.561 19.0001H197.341L195.211 14.0301H196.641L198.201 18.1001H197.791L199.251 14.0301H200.741L202.141 18.1001Z" fill="white"/>
<path d="M207.033 11.8501V12.9901H205.523V11.8501H207.033ZM205.623 14.0301H206.923V19.0001H205.623V14.0301Z" fill="white"/>
<path d="M210.639 19.1101C210.139 19.1101 209.686 19.0034 209.279 18.7901C208.879 18.5701 208.562 18.2668 208.329 17.8801C208.096 17.4868 207.979 17.0334 207.979 16.5201C207.979 15.9934 208.092 15.5368 208.319 15.1501C208.552 14.7634 208.869 14.4634 209.269 14.2501C209.669 14.0301 210.126 13.9201 210.639 13.9201C211.086 13.9201 211.466 13.9868 211.779 14.1201C212.092 14.2534 212.346 14.4401 212.539 14.6801C212.732 14.9134 212.872 15.1868 212.959 15.5001C213.052 15.8134 213.099 16.1534 213.099 16.5201C213.099 16.8134 213.052 17.1134 212.959 17.4201C212.866 17.7201 212.722 18.0001 212.529 18.2601C212.336 18.5134 212.082 18.7201 211.769 18.8801C211.456 19.0334 211.079 19.1101 210.639 19.1101ZM211.059 18.1101C211.452 18.1101 211.792 18.0434 212.079 17.9101C212.366 17.7768 212.586 17.5901 212.739 17.3501C212.892 17.1101 212.969 16.8334 212.969 16.5201C212.969 16.1801 212.889 15.8934 212.729 15.6601C212.576 15.4201 212.356 15.2368 212.069 15.1101C211.789 14.9834 211.452 14.9201 211.059 14.9201C210.506 14.9201 210.076 15.0668 209.769 15.3601C209.462 15.6534 209.309 16.0401 209.309 16.5201C209.309 16.8401 209.382 17.1201 209.529 17.3601C209.676 17.5934 209.879 17.7768 210.139 17.9101C210.406 18.0434 210.712 18.1101 211.059 18.1101ZM212.969 12.0301H214.269V19.0001H213.059C213.039 18.8468 213.019 18.6501 212.999 18.4101C212.979 18.1634 212.969 17.9334 212.969 17.7201V12.0301Z" fill="white"/>
<path d="M217.822 16.8201H219.172C219.199 17.0468 219.302 17.2534 219.482 17.4401C219.669 17.6201 219.912 17.7634 220.212 17.8701C220.512 17.9701 220.849 18.0201 221.222 18.0201C221.562 18.0201 221.842 17.9834 222.062 17.9101C222.282 17.8368 222.446 17.7334 222.552 17.6001C222.659 17.4668 222.712 17.3068 222.712 17.1201C222.712 16.9401 222.646 16.8034 222.512 16.7101C222.379 16.6101 222.169 16.5301 221.882 16.4701C221.596 16.4034 221.219 16.3368 220.752 16.2701C220.386 16.2168 220.039 16.1434 219.712 16.0501C219.386 15.9501 219.096 15.8234 218.842 15.6701C218.596 15.5168 218.399 15.3301 218.252 15.1101C218.112 14.8834 218.042 14.6168 218.042 14.3101C218.042 13.9301 218.149 13.5968 218.362 13.3101C218.582 13.0234 218.906 12.8001 219.332 12.6401C219.759 12.4801 220.282 12.4001 220.902 12.4001C221.836 12.4001 222.552 12.6001 223.052 13.0001C223.559 13.3934 223.806 13.9368 223.792 14.6301H222.492C222.466 14.2368 222.299 13.9534 221.992 13.7801C221.692 13.6068 221.312 13.5201 220.852 13.5201C220.426 13.5201 220.072 13.5834 219.792 13.7101C219.519 13.8368 219.382 14.0534 219.382 14.3601C219.382 14.4801 219.416 14.5868 219.482 14.6801C219.549 14.7668 219.662 14.8434 219.822 14.9101C219.982 14.9768 220.199 15.0401 220.472 15.1001C220.746 15.1601 221.086 15.2201 221.492 15.2801C221.872 15.3334 222.216 15.4068 222.522 15.5001C222.836 15.5868 223.102 15.7034 223.322 15.8501C223.549 15.9901 223.722 16.1701 223.842 16.3901C223.962 16.6101 224.022 16.8801 224.022 17.2001C224.022 17.5934 223.919 17.9368 223.712 18.2301C223.512 18.5168 223.199 18.7401 222.772 18.9001C222.352 19.0601 221.806 19.1401 221.132 19.1401C220.652 19.1401 220.229 19.0901 219.862 18.9901C219.496 18.8834 219.179 18.7434 218.912 18.5701C218.646 18.3968 218.429 18.2068 218.262 18.0001C218.096 17.7934 217.976 17.5868 217.902 17.3801C217.836 17.1734 217.809 16.9868 217.822 16.8201Z" fill="white"/>
<path d="M225.116 12.0301H226.416V19.0001H225.116V12.0301ZM230.606 14.0301L227.646 16.6401L227.676 15.8401L230.836 19.0001H229.186L226.446 16.2101L228.836 14.0301H230.606Z" fill="white"/>
<path d="M233.01 11.8501V12.9901H231.5V11.8501H233.01ZM231.6 14.0301H232.9V19.0001H231.6V14.0301Z" fill="white"/>
<path d="M234.196 14.0301H235.496V19.0001H234.196V14.0301ZM237.806 13.9201C238.112 13.9201 238.396 13.9601 238.656 14.0401C238.916 14.1201 239.142 14.2434 239.336 14.4101C239.529 14.5768 239.679 14.7901 239.786 15.0501C239.892 15.3034 239.946 15.6068 239.946 15.9601V19.0001H238.646V16.1901C238.646 15.7701 238.542 15.4634 238.336 15.2701C238.136 15.0701 237.806 14.9701 237.346 14.9701C236.999 14.9701 236.686 15.0368 236.406 15.1701C236.126 15.3034 235.899 15.4734 235.726 15.6801C235.552 15.8801 235.452 16.0901 235.426 16.3101L235.416 15.8001C235.449 15.5668 235.526 15.3401 235.646 15.1201C235.766 14.9001 235.926 14.7001 236.126 14.5201C236.332 14.3334 236.576 14.1868 236.856 14.0801C237.136 13.9734 237.452 13.9201 237.806 13.9201Z" fill="white"/>
<path d="M243.549 19.1101C243.049 19.1101 242.596 19.0034 242.189 18.7901C241.789 18.5701 241.473 18.2668 241.239 17.8801C241.006 17.4868 240.889 17.0334 240.889 16.5201C240.889 15.9934 241.003 15.5368 241.229 15.1501C241.463 14.7634 241.779 14.4634 242.179 14.2501C242.579 14.0301 243.036 13.9201 243.549 13.9201C243.996 13.9201 244.376 13.9868 244.689 14.1201C245.003 14.2534 245.256 14.4401 245.449 14.6801C245.643 14.9134 245.783 15.1868 245.869 15.5001C245.963 15.8134 246.009 16.1534 246.009 16.5201C246.009 16.8134 245.963 17.1134 245.869 17.4201C245.776 17.7201 245.633 18.0001 245.439 18.2601C245.246 18.5134 244.993 18.7201 244.679 18.8801C244.366 19.0334 243.989 19.1101 243.549 19.1101ZM243.969 18.1101C244.363 18.1101 244.703 18.0434 244.989 17.9101C245.276 17.7768 245.496 17.5901 245.649 17.3501C245.803 17.1101 245.879 16.8334 245.879 16.5201C245.879 16.1801 245.799 15.8934 245.639 15.6601C245.486 15.4201 245.266 15.2368 244.979 15.1101C244.699 14.9834 244.363 14.9201 243.969 14.9201C243.416 14.9201 242.986 15.0668 242.679 15.3601C242.373 15.6534 242.219 16.0401 242.219 16.5201C242.219 16.8401 242.293 17.1201 242.439 17.3601C242.586 17.5934 242.789 17.7768 243.049 17.9101C243.316 18.0434 243.623 18.1101 243.969 18.1101ZM245.879 12.0301H247.179V19.0001H245.969C245.949 18.8468 245.929 18.6501 245.909 18.4101C245.889 18.1634 245.879 17.9334 245.879 17.7201V12.0301Z" fill="white"/>
<path d="M253.11 17.3501H254.37C254.317 17.6901 254.174 17.9934 253.94 18.2601C253.714 18.5268 253.404 18.7368 253.01 18.8901C252.617 19.0434 252.137 19.1201 251.57 19.1201C250.937 19.1201 250.377 19.0201 249.89 18.8201C249.404 18.6134 249.024 18.3168 248.75 17.9301C248.477 17.5434 248.34 17.0768 248.34 16.5301C248.34 15.9834 248.474 15.5168 248.74 15.1301C249.007 14.7368 249.377 14.4368 249.85 14.2301C250.33 14.0234 250.89 13.9201 251.53 13.9201C252.184 13.9201 252.727 14.0234 253.16 14.2301C253.594 14.4368 253.914 14.7501 254.12 15.1701C254.334 15.5834 254.424 16.1134 254.39 16.7601H249.65C249.684 17.0134 249.777 17.2434 249.93 17.4501C250.09 17.6568 250.304 17.8201 250.57 17.9401C250.844 18.0601 251.167 18.1201 251.54 18.1201C251.954 18.1201 252.297 18.0501 252.57 17.9101C252.85 17.7634 253.03 17.5768 253.11 17.3501ZM251.47 14.9101C250.99 14.9101 250.6 15.0168 250.3 15.2301C250 15.4368 249.807 15.6934 249.72 16.0001H253.1C253.067 15.6668 252.907 15.4034 252.62 15.2101C252.34 15.0101 251.957 14.9101 251.47 14.9101Z" fill="white"/>
<path d="M255.358 14.0301H256.658V19.0001H255.358V14.0301ZM258.568 15.1001C258.194 15.1001 257.871 15.1734 257.598 15.3201C257.324 15.4601 257.104 15.6334 256.938 15.8401C256.771 16.0468 256.654 16.2468 256.588 16.4401L256.578 15.8901C256.584 15.8101 256.611 15.6934 256.658 15.5401C256.704 15.3801 256.774 15.2101 256.868 15.0301C256.961 14.8434 257.084 14.6668 257.238 14.5001C257.391 14.3268 257.578 14.1868 257.798 14.0801C258.018 13.9734 258.274 13.9201 258.568 13.9201V15.1001Z" fill="white"/>
<rect x="146" width="1" height="32" fill="white"/>
<path d="M76.968 18.568C76.824 19.816 76.384 20.88 75.648 21.76C74.912 22.64 73.912 23.312 72.648 23.776C71.384 24.24 69.88 24.472 68.136 24.472C66.68 24.472 65.344 24.304 64.128 23.968C62.928 23.632 61.888 23.128 61.008 22.456C60.144 21.784 59.472 20.952 58.992 19.96C58.512 18.952 58.272 17.776 58.272 16.432C58.272 15.088 58.512 13.912 58.992 12.904C59.472 11.896 60.144 11.056 61.008 10.384C61.888 9.696 62.928 9.184 64.128 8.848C65.344 8.496 66.68 8.32 68.136 8.32C69.88 8.32 71.384 8.56 72.648 9.04C73.928 9.52 74.936 10.208 75.672 11.104C76.408 11.984 76.84 13.056 76.968 14.32H73.8C73.592 13.648 73.24 13.072 72.744 12.592C72.264 12.096 71.64 11.72 70.872 11.464C70.104 11.208 69.192 11.08 68.136 11.08C66.824 11.08 65.672 11.288 64.68 11.704C63.688 12.104 62.92 12.704 62.376 13.504C61.832 14.288 61.56 15.264 61.56 16.432C61.56 17.584 61.832 18.552 62.376 19.336C62.92 20.12 63.688 20.72 64.68 21.136C65.672 21.536 66.824 21.736 68.136 21.736C69.192 21.736 70.096 21.608 70.848 21.352C71.616 21.096 72.24 20.728 72.72 20.248C73.216 19.768 73.576 19.208 73.8 18.568H76.968Z" fill="white"/>
<path d="M83.2503 7V9.736H79.6263V7H83.2503ZM79.8663 12.232H82.9863V24.16H79.8663V12.232Z" fill="white"/>
<path d="M85.2562 12.232H94.5202V14.656H85.2562V12.232ZM88.3282 8.968H91.4482V24.16H88.3282V8.968Z" fill="white"/>
<path d="M100.078 7V9.736H96.4545V7H100.078ZM96.6945 12.232H99.8145V24.16H96.6945V12.232Z" fill="white"/>
<path d="M113.796 20.2H116.82C116.692 21.016 116.348 21.744 115.788 22.384C115.244 23.024 114.5 23.528 113.556 23.896C112.612 24.264 111.46 24.448 110.1 24.448C108.58 24.448 107.236 24.208 106.068 23.728C104.9 23.232 103.988 22.52 103.332 21.592C102.676 20.664 102.348 19.544 102.348 18.232C102.348 16.92 102.668 15.8 103.308 14.872C103.948 13.928 104.836 13.208 105.972 12.712C107.124 12.216 108.468 11.968 110.004 11.968C111.572 11.968 112.876 12.216 113.916 12.712C114.956 13.208 115.724 13.96 116.22 14.968C116.732 15.96 116.948 17.232 116.868 18.784H105.492C105.572 19.392 105.796 19.944 106.164 20.44C106.548 20.936 107.06 21.328 107.7 21.616C108.356 21.904 109.132 22.048 110.028 22.048C111.02 22.048 111.844 21.88 112.5 21.544C113.172 21.192 113.604 20.744 113.796 20.2ZM109.86 14.344C108.708 14.344 107.772 14.6 107.052 15.112C106.332 15.608 105.868 16.224 105.66 16.96H113.772C113.692 16.16 113.308 15.528 112.62 15.064C111.948 14.584 111.028 14.344 109.86 14.344Z" fill="white"/>
<path d="M118.71 20.2H121.59C121.766 20.744 122.126 21.192 122.67 21.544C123.23 21.88 123.958 22.048 124.854 22.048C125.462 22.048 125.934 21.992 126.27 21.88C126.606 21.768 126.838 21.608 126.966 21.4C127.094 21.176 127.158 20.928 127.158 20.656C127.158 20.32 127.054 20.064 126.846 19.888C126.638 19.696 126.318 19.544 125.886 19.432C125.454 19.32 124.902 19.216 124.23 19.12C123.558 19.008 122.91 18.872 122.286 18.712C121.662 18.552 121.11 18.344 120.63 18.088C120.15 17.816 119.766 17.48 119.478 17.08C119.206 16.664 119.07 16.16 119.07 15.568C119.07 14.992 119.206 14.48 119.478 14.032C119.766 13.584 120.158 13.208 120.654 12.904C121.166 12.6 121.758 12.368 122.43 12.208C123.118 12.048 123.854 11.968 124.638 11.968C125.822 11.968 126.806 12.144 127.59 12.496C128.374 12.832 128.958 13.312 129.342 13.936C129.742 14.544 129.942 15.248 129.942 16.048H127.182C127.054 15.456 126.798 15.032 126.414 14.776C126.03 14.504 125.438 14.368 124.638 14.368C123.854 14.368 123.262 14.488 122.862 14.728C122.462 14.968 122.262 15.296 122.262 15.712C122.262 16.048 122.382 16.312 122.622 16.504C122.878 16.68 123.246 16.824 123.726 16.936C124.222 17.048 124.838 17.168 125.574 17.296C126.198 17.424 126.79 17.568 127.35 17.728C127.926 17.888 128.438 18.096 128.886 18.352C129.334 18.592 129.686 18.92 129.942 19.336C130.214 19.736 130.35 20.248 130.35 20.872C130.35 21.64 130.126 22.288 129.678 22.816C129.246 23.344 128.622 23.752 127.806 24.04C126.99 24.312 126.014 24.448 124.878 24.448C123.87 24.448 122.998 24.344 122.262 24.136C121.542 23.912 120.942 23.632 120.462 23.296C119.982 22.944 119.606 22.576 119.334 22.192C119.078 21.792 118.902 21.416 118.806 21.064C118.71 20.712 118.678 20.424 118.71 20.2Z" fill="white"/>
<path d="M41.246 6.04481C40.7149 4.8444 40.0067 3.82158 39.1183 2.89085C38.1872 2.00288 37.1676 1.28921 35.9742 0.756423C34.7776 0.266393 33.4498 0 32.0762 0H0V32H32.0762C33.4498 32 34.7776 31.7336 35.9742 31.2008C37.1709 30.7108 38.1905 30.0004 39.1183 29.0664C40.0034 28.1784 40.7149 27.1096 41.246 25.9124C41.7344 24.712 42 23.4228 42 22.0448V9.95519C42 8.57718 41.7344 7.24522 41.246 6.04481ZM34.6891 19.4664C34.6891 20.2228 34.5547 20.8872 34.2891 21.512C34.0236 22.1797 33.6695 22.7124 33.181 23.2025C32.6925 23.6925 32.1614 24.0477 31.5418 24.268C30.8763 24.5344 30.214 24.6693 29.46 24.6693H7.3109V20.0288H26.6668C26.9389 20.0288 27.1585 19.8084 27.1585 19.5355V18.7396C27.1585 18.4666 26.9389 18.2462 26.6668 18.2462H7.3109V13.7899H26.6668C26.9389 13.7899 27.1585 13.5696 27.1585 13.2966V12.5007C27.1585 12.2277 26.9389 12.0074 26.6668 12.0074H7.3109V7.33731H29.4633C30.2173 7.33731 30.8796 7.47215 31.5451 7.73854C32.1647 8.00493 32.6958 8.36012 33.1843 8.80411C33.6728 9.29414 34.0269 9.82693 34.2924 10.4946C34.558 11.1622 34.6924 11.8726 34.6924 12.629V19.473L34.6891 19.4664Z" fill="white"/>
</svg>
