<svg width="131" height="32" viewBox="0 0 131 32" fill="none" xmlns="http://www.w3.org/2000/svg">
<path d="M76.968 18.568C76.824 19.816 76.384 20.88 75.648 21.76C74.912 22.64 73.912 23.312 72.648 23.776C71.384 24.24 69.88 24.472 68.136 24.472C66.68 24.472 65.344 24.304 64.128 23.968C62.928 23.632 61.888 23.128 61.008 22.456C60.144 21.784 59.472 20.952 58.992 19.96C58.512 18.952 58.272 17.776 58.272 16.432C58.272 15.088 58.512 13.912 58.992 12.904C59.472 11.896 60.144 11.056 61.008 10.384C61.888 9.696 62.928 9.184 64.128 8.848C65.344 8.496 66.68 8.32 68.136 8.32C69.88 8.32 71.384 8.56 72.648 9.04C73.928 9.52 74.936 10.208 75.672 11.104C76.408 11.984 76.84 13.056 76.968 14.32H73.8C73.592 13.648 73.24 13.072 72.744 12.592C72.264 12.096 71.64 11.72 70.872 11.464C70.104 11.208 69.192 11.08 68.136 11.08C66.824 11.08 65.672 11.288 64.68 11.704C63.688 12.104 62.92 12.704 62.376 13.504C61.832 14.288 61.56 15.264 61.56 16.432C61.56 17.584 61.832 18.552 62.376 19.336C62.92 20.12 63.688 20.72 64.68 21.136C65.672 21.536 66.824 21.736 68.136 21.736C69.192 21.736 70.096 21.608 70.848 21.352C71.616 21.096 72.24 20.728 72.72 20.248C73.216 19.768 73.576 19.208 73.8 18.568H76.968Z" fill="white"/>
<path d="M83.2503 7V9.736H79.6263V7H83.2503ZM79.8663 12.232H82.9863V24.16H79.8663V12.232Z" fill="white"/>
<path d="M85.2562 12.232H94.5202V14.656H85.2562V12.232ZM88.3282 8.968H91.4482V24.16H88.3282V8.968Z" fill="white"/>
<path d="M100.078 7V9.736H96.4545V7H100.078ZM96.6945 12.232H99.8145V24.16H96.6945V12.232Z" fill="white"/>
<path d="M113.796 20.2H116.82C116.692 21.016 116.348 21.744 115.788 22.384C115.244 23.024 114.5 23.528 113.556 23.896C112.612 24.264 111.46 24.448 110.1 24.448C108.58 24.448 107.236 24.208 106.068 23.728C104.9 23.232 103.988 22.52 103.332 21.592C102.676 20.664 102.348 19.544 102.348 18.232C102.348 16.92 102.668 15.8 103.308 14.872C103.948 13.928 104.836 13.208 105.972 12.712C107.124 12.216 108.468 11.968 110.004 11.968C111.572 11.968 112.876 12.216 113.916 12.712C114.956 13.208 115.724 13.96 116.22 14.968C116.732 15.96 116.948 17.232 116.868 18.784H105.492C105.572 19.392 105.796 19.944 106.164 20.44C106.548 20.936 107.06 21.328 107.7 21.616C108.356 21.904 109.132 22.048 110.028 22.048C111.02 22.048 111.844 21.88 112.5 21.544C113.172 21.192 113.604 20.744 113.796 20.2ZM109.86 14.344C108.708 14.344 107.772 14.6 107.052 15.112C106.332 15.608 105.868 16.224 105.66 16.96H113.772C113.692 16.16 113.308 15.528 112.62 15.064C111.948 14.584 111.028 14.344 109.86 14.344Z" fill="white"/>
<path d="M118.71 20.2H121.59C121.766 20.744 122.126 21.192 122.67 21.544C123.23 21.88 123.958 22.048 124.854 22.048C125.462 22.048 125.934 21.992 126.27 21.88C126.606 21.768 126.838 21.608 126.966 21.4C127.094 21.176 127.158 20.928 127.158 20.656C127.158 20.32 127.054 20.064 126.846 19.888C126.638 19.696 126.318 19.544 125.886 19.432C125.454 19.32 124.902 19.216 124.23 19.12C123.558 19.008 122.91 18.872 122.286 18.712C121.662 18.552 121.11 18.344 120.63 18.088C120.15 17.816 119.766 17.48 119.478 17.08C119.206 16.664 119.07 16.16 119.07 15.568C119.07 14.992 119.206 14.48 119.478 14.032C119.766 13.584 120.158 13.208 120.654 12.904C121.166 12.6 121.758 12.368 122.43 12.208C123.118 12.048 123.854 11.968 124.638 11.968C125.822 11.968 126.806 12.144 127.59 12.496C128.374 12.832 128.958 13.312 129.342 13.936C129.742 14.544 129.942 15.248 129.942 16.048H127.182C127.054 15.456 126.798 15.032 126.414 14.776C126.03 14.504 125.438 14.368 124.638 14.368C123.854 14.368 123.262 14.488 122.862 14.728C122.462 14.968 122.262 15.296 122.262 15.712C122.262 16.048 122.382 16.312 122.622 16.504C122.878 16.68 123.246 16.824 123.726 16.936C124.222 17.048 124.838 17.168 125.574 17.296C126.198 17.424 126.79 17.568 127.35 17.728C127.926 17.888 128.438 18.096 128.886 18.352C129.334 18.592 129.686 18.92 129.942 19.336C130.214 19.736 130.35 20.248 130.35 20.872C130.35 21.64 130.126 22.288 129.678 22.816C129.246 23.344 128.622 23.752 127.806 24.04C126.99 24.312 126.014 24.448 124.878 24.448C123.87 24.448 122.998 24.344 122.262 24.136C121.542 23.912 120.942 23.632 120.462 23.296C119.982 22.944 119.606 22.576 119.334 22.192C119.078 21.792 118.902 21.416 118.806 21.064C118.71 20.712 118.678 20.424 118.71 20.2Z" fill="white"/>
<path d="M41.246 6.04481C40.7149 4.8444 40.0067 3.82158 39.1183 2.89085C38.1872 2.00288 37.1676 1.28921 35.9742 0.756423C34.7776 0.266393 33.4498 0 32.0762 0H0V32H32.0762C33.4498 32 34.7776 31.7336 35.9742 31.2008C37.1709 30.7108 38.1905 30.0004 39.1183 29.0664C40.0034 28.1784 40.7149 27.1096 41.246 25.9124C41.7344 24.712 42 23.4228 42 22.0448V9.95519C42 8.57718 41.7344 7.24522 41.246 6.04481ZM34.6891 19.4664C34.6891 20.2228 34.5547 20.8872 34.2891 21.512C34.0236 22.1797 33.6695 22.7124 33.181 23.2025C32.6925 23.6925 32.1614 24.0477 31.5418 24.268C30.8763 24.5344 30.214 24.6693 29.46 24.6693H7.3109V20.0288H26.6668C26.9389 20.0288 27.1585 19.8084 27.1585 19.5355V18.7396C27.1585 18.4666 26.9389 18.2462 26.6668 18.2462H7.3109V13.7899H26.6668C26.9389 13.7899 27.1585 13.5696 27.1585 13.2966V12.5007C27.1585 12.2277 26.9389 12.0074 26.6668 12.0074H7.3109V7.33731H29.4633C30.2173 7.33731 30.8796 7.47215 31.5451 7.73854C32.1647 8.00493 32.6958 8.36012 33.1843 8.80411C33.6728 9.29414 34.0269 9.82693 34.2924 10.4946C34.558 11.1622 34.6924 11.8726 34.6924 12.629V19.473L34.6891 19.4664Z" fill="white"/>
</svg>
