<svg width="64" height="64" viewBox="0 0 64 64" fill="none" xmlns="http://www.w3.org/2000/svg">
<path d="M59.561 27.3612L57.316 24.4637L44.4865 16.2162C44.5289 16.4585 44.5741 16.7007 44.6271 16.9412C44.7297 17.3879 44.8421 17.8319 44.9641 18.2733C45.0367 18.5419 45.1127 18.8045 45.1897 19.0617C45.2145 19.1401 45.2375 19.2194 45.2596 19.2987C47.7947 27.4123 52.8543 31.2665 59.6459 36.4324C60.0882 33.675 60.1165 30.8674 59.729 28.1012L59.5592 27.3621L59.561 27.3612Z" fill="#EE7730"/>
<path d="M34.6883 38.9911C22.4967 33.5413 14.8752 22.4801 14.4308 11.3473C14.4175 11.0383 14.1569 10.7981 13.8468 10.8113C13.7178 10.8166 13.595 10.8661 13.4987 10.9517C1.88224 21.1865 0.765556 38.8949 11.0048 50.5062C21.244 62.1167 38.9625 63.2328 50.579 52.9989C53.9856 49.9985 56.6112 46.2158 58.2314 41.9765C58.3445 41.6887 58.2023 41.3637 57.9134 41.2507C57.8065 41.2092 57.689 41.2012 57.5777 41.2277C49.912 43.0599 41.8531 42.2723 34.6883 38.992V38.9911Z" fill="#F9D85E"/>
<path d="M59.7289 28.1072C59.068 26.5815 49.8759 22.6233 32.1525 16.2328C18.7716 11.4059 16.2855 6.74842 25.9736 4.64058C26.4453 4.53916 26.9215 4.4492 27.4012 4.37071C42.7063 1.8757 57.1394 12.2385 59.6396 27.5172C59.6714 27.7139 59.7015 27.9106 59.7297 28.1081" fill="#F9D85E"/>
</svg>
